<svg width="211" height="60" viewBox="0 0 211 60" xmlns="http://www.w3.org/2000/svg" xmlns:xlink="http://www.w3.org/1999/xlink"><title>Page 1</title><defs><path id="a" d="M12.66 14.194V.434H.177v13.76h12.48z"/><path id="c" d="M55.86.017H0v58.211h55.86V.018z"/></defs><g fill="none" fill-rule="evenodd"><path fill="#FFF" d="M139.02 49.224h1.687v.187h-.734v2.135h-.22V49.41h-.733zM141.267 51.545v-2.32h.335l.76 2.046h.006l.747-2.046h.332v2.32h-.22v-2.068h-.006l-.758 2.07h-.207l-.763-2.07h-.006v2.07zM74.647.785c4.478 0 6.666 2.32 6.666 2.32l-1.905 2.422s-1.904-1.623-4.684-1.623c-3.166 0-5.868 2.5-5.868 6.21 0 3.995 2.728 6.443 5.996 6.443 2.91 0 4.633-1.907 4.633-1.907v-1.366c0-.387-.206-.567-.566-.567H77.81v-2.86h2.96c1.235 0 1.75.515 1.75 1.726v7.808H79.64v-.875c0-.387.025-.773.025-.773h-.05s-1.957 1.958-5.38 1.958c-4.787 0-8.88-3.66-8.88-9.56 0-5.257 3.99-9.355 9.292-9.355M85.33 4.445c0-.387-.205-.567-.565-.567h-1.03V1.095h3.115c1.21 0 1.75.54 1.75 1.752v13.22c0 .36.206.567.566.567h1.004v2.757h-3.09c-1.234 0-1.75-.514-1.75-1.75V4.444zM98.123 5.94c4.015 0 7.207 2.86 7.207 6.88 0 4.046-3.192 6.88-7.207 6.88-3.99 0-7.18-2.834-7.18-6.88 0-4.02 3.19-6.88 7.18-6.88m0 10.977c2.136 0 3.912-1.65 3.912-4.097 0-2.422-1.776-4.098-3.912-4.098-2.11 0-3.886 1.676-3.886 4.098 0 2.448 1.776 4.097 3.886 4.097M107.21 4.445c0-.387-.205-.567-.565-.567h-1.03V1.095h3.115c1.21 0 1.75.54 1.75 1.752V6.66c0 .646-.052 1.11-.052 1.11h.05s1.16-1.83 3.94-1.83c3.55 0 5.815 2.81 5.815 6.88 0 4.175-2.547 6.88-6.022 6.88-2.727 0-3.91-1.855-3.91-1.855h-.052s.052.36.052.876v.67h-3.09V4.446zm6.435 12.498c1.776 0 3.294-1.47 3.294-4.072 0-2.498-1.34-4.12-3.27-4.12-1.698 0-3.293 1.235-3.293 4.147 0 2.036 1.08 4.046 3.268 4.046zM129.22 11.145h.41v-.103c0-1.88-.746-2.577-2.418-2.577-.592 0-1.75.155-1.75.876v.697h-3.037V8.645c0-2.448 3.448-2.706 4.813-2.706 4.375 0 5.66 2.293 5.66 5.23v4.896c0 .362.207.568.567.568h1.03v2.757h-2.933c-1.21 0-1.674-.668-1.674-1.442 0-.335.026-.566.026-.566h-.052S128.86 19.7 125.9 19.7c-2.343 0-4.48-1.47-4.48-4.097 0-4.123 5.663-4.458 7.8-4.458m-2.523 6.004c1.75 0 2.986-1.856 2.986-3.454v-.31h-.567c-1.7 0-4.4.233-4.4 2.062 0 .877.643 1.7 1.98 1.7M136.145 4.445c0-.387-.206-.567-.566-.567h-1.03V1.095h3.114c1.21 0 1.75.54 1.75 1.752v13.22c0 .36.206.567.565.567h1.003v2.757h-3.088c-1.236 0-1.75-.514-1.75-1.75V4.444zM64.84 37.416h.412c.438 0 .644-.103.798-.567l5.43-14.87h3.527l5.405 14.87c.154.463.36.566.797.566h.41v2.86h-2.006c-1.287 0-1.75-.335-2.163-1.495l-1.13-3.194H70.14L69.01 38.78c-.412 1.16-.85 1.496-2.136 1.496H64.84v-2.86zm10.708-4.613l-1.57-4.587c-.335-1.005-.72-2.732-.72-2.732h-.053s-.386 1.727-.72 2.732l-1.57 4.587h4.633zM87.673 26.824c2.986 0 4.066 1.933 4.066 1.933h.05v-.464c0-.67.49-1.16 1.673-1.16h2.883v2.784h-1.03c-.36 0-.566.18-.566.566v13.54h-3.268v-4.16c0-.67.05-1.133.05-1.133h-.05s-1.107 1.855-3.938 1.855c-3.55 0-5.816-2.81-5.816-6.88 0-4.175 2.47-6.88 5.945-6.88m3.912 6.854c0-2.037-1.08-4.047-3.27-4.047-1.775 0-3.293 1.47-3.293 4.072 0 2.5 1.338 4.123 3.27 4.123 1.697 0 3.293-1.237 3.293-4.15M98.588 30.483c0-.386-.206-.566-.566-.566h-1.03v-2.784h3.115c1.21 0 1.724.542 1.724 1.727v6.056c0 1.598.413 2.68 2.034 2.68 2.368 0 3.68-2.088 3.68-4.433v-6.03h3.27v9.818c0 .363.205.57.566.57h1.03v2.756h-3.012c-1.133 0-1.725-.54-1.725-1.47v-.36c0-.31.026-.592.026-.592h-.052c-.618 1.366-2.265 2.73-4.53 2.73-2.805 0-4.53-1.416-4.53-4.998v-5.103zM121.317 32.03h.41v-.103c0-1.882-.745-2.577-2.418-2.577-.593 0-1.75.155-1.75.876v.696h-3.038V29.53c0-2.448 3.45-2.706 4.813-2.706 4.375 0 5.662 2.294 5.662 5.232v4.896c0 .36.206.567.566.567h1.03v2.756h-2.934c-1.21 0-1.674-.67-1.674-1.443 0-.335.026-.567.026-.567h-.052s-1.004 2.32-3.963 2.32c-2.342 0-4.48-1.47-4.48-4.098 0-4.123 5.664-4.458 7.8-4.458m-2.523 6.004c1.75 0 2.986-1.855 2.986-3.453v-.308h-.566c-1.7 0-4.4.232-4.4 2.06 0 .878.642 1.702 1.98 1.702M134.446 26.824c1.698 0 4.76.696 4.76 2.964v1.546h-2.882v-.722c0-.72-1.08-1.03-1.878-1.03-2.265 0-3.887 1.726-3.887 4.097 0 2.68 1.98 4.045 4.09 4.045 2.24 0 3.887-1.778 3.887-1.778l1.365 2.267s-1.956 2.37-5.534 2.37c-4.324 0-7.103-3.065-7.103-6.88 0-3.71 2.677-6.88 7.18-6.88M142.117 30.483c0-.386-.206-.566-.566-.566h-1.03v-2.784h3.116c1.21 0 1.724.542 1.724 1.727v6.056c0 1.598.412 2.68 2.033 2.68 2.368 0 3.68-2.088 3.68-4.433v-6.03h3.27v9.818c0 .363.205.57.565.57h1.03v2.756h-3.01c-1.134 0-1.726-.54-1.726-1.47v-.36c0-.31.026-.592.026-.592h-.052c-.617 1.366-2.264 2.73-4.53 2.73-2.805 0-4.53-1.416-4.53-4.998v-5.103zM158 25.33c0-.387-.206-.567-.566-.567h-1.03V21.98h3.115c1.208 0 1.75.54 1.75 1.752v13.22c0 .36.204.567.565.567h1.003v2.756h-3.088c-1.235 0-1.75-.515-1.75-1.752V25.33zM164.847 29.736h-1.7v-2.603h1.777v-3.58h3.192v3.58h2.985v2.603h-2.984v5.31c0 2.163 1.698 2.472 2.6 2.472.36 0 .59-.05.59-.05v2.86s-.41.077-1.003.077c-1.827 0-5.456-.542-5.456-4.948v-5.72zM174.14 30.483c0-.386-.206-.566-.566-.566h-1.03v-2.784h3.115c1.208 0 1.723.542 1.723 1.727v6.056c0 1.598.41 2.68 2.033 2.68 2.367 0 3.68-2.088 3.68-4.433v-6.03h3.27v9.818c0 .363.205.57.565.57h1.03v2.756h-3.01c-1.133 0-1.725-.54-1.725-1.47v-.36c0-.31.025-.592.025-.592h-.05c-.62 1.366-2.265 2.73-4.53 2.73-2.806 0-4.53-1.416-4.53-4.998v-5.103zM190.1 30.483c0-.386-.206-.566-.566-.566h-1.03v-2.784h2.986c1.158 0 1.75.49 1.75 1.6v.77c0 .49-.05.826-.05.826h.05c.592-1.882 2.162-3.377 4.17-3.377.282 0 .59.05.59.05v3.223s-.333-.05-.797-.05c-1.39 0-2.986.798-3.577 2.756a7.947 7.947 0 0 0-.283 2.14v5.204H190.1v-9.793z"/><g transform="translate(198.34 26.39)"><mask id="b" fill="#fff"><use xlink:href="#a"/></mask><path d="M6.844.433C10.6.433 12.66 3.19 12.66 6.67c0 .386-.077 1.21-.077 1.21h-9.06c.258 2.32 1.956 3.53 3.938 3.53 2.112 0 3.682-1.468 3.682-1.468l1.363 2.268s-2.007 1.984-5.275 1.984c-4.35 0-7.052-3.143-7.052-6.88 0-4.046 2.728-6.88 6.666-6.88zm2.47 5.18c-.05-1.572-1.132-2.655-2.47-2.655-1.674 0-2.857 1.006-3.218 2.655h5.688z" fill="#FFF" mask="url(#b)"/></g><path d="M64.86 56.8h.305c.322 0 .474-.074.587-.417l4.002-10.957h2.6l3.982 10.957c.114.343.265.418.588.418h.303v2.11h-1.48c-.948 0-1.29-.248-1.593-1.102l-.834-2.355h-4.552l-.834 2.355c-.304.854-.626 1.1-1.575 1.1h-1.5v-2.107zm7.89-3.398l-1.156-3.38c-.247-.74-.53-2.013-.53-2.013h-.038s-.285 1.27-.532 2.012l-1.157 3.38h3.414zM78.76 47.895c0-.285-.15-.418-.417-.418h-.76v-2.05h2.297c.89 0 1.29.398 1.29 1.29v9.743c0 .266.15.417.417.417h.74v2.032H80.05c-.91 0-1.29-.38-1.29-1.292v-9.723zM84.184 47.895c0-.285-.152-.418-.418-.418h-.758v-2.05h2.295c.89 0 1.29.398 1.29 1.29v9.743c0 .266.15.417.417.417h.74v2.032h-2.277c-.91 0-1.29-.38-1.29-1.292v-9.723zM89.834 51.693c0-.285-.15-.418-.417-.418h-.758v-2.05h2.293c.892 0 1.27.398 1.27 1.29v5.945c0 .265.153.417.42.417h.757v2.032h-2.295c-.89 0-1.27-.38-1.27-1.292v-5.925zm.114-4.045h2.087v-2.222h-2.087v2.222zM100.227 52.832h.303v-.076c0-1.386-.55-1.9-1.783-1.9-.436 0-1.29.115-1.29.647v.513H95.22V50.99c0-1.804 2.54-1.994 3.546-1.994 3.225 0 4.173 1.69 4.173 3.855v3.61c0 .265.15.417.416.417h.76v2.032h-2.163c-.892 0-1.233-.494-1.233-1.064 0-.247.02-.418.02-.418h-.04s-.74 1.71-2.92 1.71c-1.726 0-3.3-1.084-3.3-3.02 0-3.04 4.172-3.286 5.747-3.286m-1.86 4.425c1.29 0 2.2-1.367 2.2-2.544v-.23h-.416c-1.25 0-3.243.173-3.243 1.52 0 .646.475 1.254 1.46 1.254M106.047 51.693c0-.285-.15-.418-.417-.418h-.76v-2.05h2.22c.854 0 1.27.398 1.27 1.08v.287c0 .208-.037.417-.037.417h.038c.42-.818 1.46-2.014 3.415-2.014 2.143 0 3.376 1.12 3.376 3.684v3.78c0 .265.153.417.42.417h.757v2.032h-2.295c-.91 0-1.29-.38-1.29-1.292v-4.444c0-1.177-.303-1.975-1.517-1.975-1.29 0-2.257.816-2.598 1.974-.133.4-.19.835-.19 1.29v4.445h-2.39v-7.217zM122.564 48.996c1.252 0 3.51.513 3.51 2.184v1.14h-2.125v-.532c0-.532-.798-.76-1.386-.76-1.67 0-2.864 1.273-2.864 3.02 0 1.975 1.46 2.98 3.016 2.98 1.65 0 2.864-1.31 2.864-1.31l1.005 1.672s-1.44 1.747-4.078 1.747c-3.186 0-5.234-2.26-5.234-5.07 0-2.735 1.972-5.07 5.29-5.07M132.386 48.996c2.77 0 4.287 2.032 4.287 4.596 0 .284-.057.892-.057.892h-6.676c.19 1.71 1.442 2.602 2.902 2.602 1.555 0 2.712-1.082 2.712-1.082l1.005 1.67s-1.48 1.463-3.89 1.463c-3.204 0-5.196-2.317-5.196-5.07 0-2.982 2.01-5.07 4.912-5.07zm1.82 3.817c-.037-1.158-.834-1.956-1.82-1.956-1.232 0-2.105.74-2.37 1.956h4.19zM17.29 40.994c0 1.22.33 2.96.968 4.953a41.46 41.46 0 0 0 3.495.753 41.373 41.373 0 0 1-1.45-5.37 42.58 42.58 0 0 1-3.004-.692 7.997 7.997 0 0 0-.01.356" fill="#BDD630"/><g transform="translate(0 .51)"><mask id="d" fill="#fff"><use xlink:href="#c"/></mask><path d="M44.595 49.902c.096-.124.192-.248.286-.374a29.034 29.034 0 0 0 2.273-3.584 41.253 41.253 0 0 1-4.908 1.84c-1.563 2.063-3.382 3.766-5.388 5.003a25.408 25.408 0 0 0 1.826-3.596c.072-.173.142-.355.212-.533-1.226.27-2.48.487-3.753.655-1.337 2.736-2.893 4.598-4.463 5.36V49.68a47.98 47.98 0 0 1-3.16 0v5.003c-1.588-.753-3.146-2.61-4.485-5.37-1.2-.158-2.38-.36-3.535-.608a37.74 37.74 0 0 0 2.442 4.66c-2.648-1.317-4.898-3.32-6.434-5.712A14.01 14.01 0 0 1 13.836 44a12.595 12.595 0 0 1-.507-3.517 14.713 14.713 0 0 1 .704-4.477C15.926 30.15 21.422 25.9 27.894 25.9h8.29v-.01c8.057-.203 14.67-6.305 15.46-14.36l.07-.67-.434-.513A29.01 29.01 0 0 0 29.068.017c-14.215 0-26.08 10.27-28.58 23.79A29.162 29.162 0 0 0 0 29.088v.036c0 1.82.17 3.602.49 5.33.388 2.09 1 4.103 1.808 6.01 4.423 10.43 14.752 17.76 26.76 17.765h.01c12.005-.004 22.355-7.332 26.792-17.755a35.045 35.045 0 0 1-5.966 4.106 26.147 26.147 0 0 1-5.3 5.322m-36.317-5.32a25.957 25.957 0 0 1-3.128-5.49 25.755 25.755 0 0 1-1.712-6.16 26.066 26.066 0 0 1-.28-3.81c0-.212.012-.42.016-.633.34-14.013 11.82-25.31 25.894-25.31 7.417 0 14.43 3.16 19.353 8.692-.93 6.24-6.26 10.866-12.65 10.866-7.05 0-12.784-5.74-12.784-12.8h-3.158c0 5.28 2.572 9.964 6.526 12.87-7.075.614-12.976 5.405-15.217 11.89-.32.924-.56 1.882-.722 2.867-.158.95-.245 1.924-.245 2.918a16.043 16.043 0 0 0 .993 5.528c.42 1.137.965 2.237 1.634 3.284a26.152 26.152 0 0 1-4.52-4.714" fill="#BDD630" mask="url(#d)"/></g><path d="M57.68 24.32a28.92 28.92 0 0 0-2.197-6.894 20.214 20.214 0 0 1-1.866 3.82 25.824 25.824 0 0 1 1.38 7.75c1.183-1.458 2.092-3.026 2.682-4.675M58.168 29.596a22.612 22.612 0 0 1-3.44 3.846c-.316 2.15-.9 4.214-1.71 6.16a27.374 27.374 0 0 0 4.658-4.636c.322-1.73.492-3.512.492-5.334v-.036M17.925 37.805c.61.166 1.226.32 1.854.458-.14-.99-.257-2-.348-3.03-.63.794-1.14 1.66-1.507 2.572M44.68 44.372a36.087 36.087 0 0 0 4.345-2.095 35.244 35.244 0 0 0 1.563-5.758 33.722 33.722 0 0 1-3.677 1.957 30.246 30.246 0 0 1-2.23 5.895M36.432 46.696c1.22-.208 2.413-.47 3.578-.776.5-1.693.918-3.495 1.248-5.385a42.554 42.554 0 0 1-3.368.79 41.394 41.394 0 0 1-1.458 5.37M42.168 29.928a20.32 20.32 0 0 1-3.165.664 60.8 60.8 0 0 1-.585 7.664 39.008 39.008 0 0 0 3.3-.883c.283-2.398.438-4.895.45-7.445M30.68 30.76h-2.14c-.34 0-.682.018-1.02.05v8.423a45.12 45.12 0 0 0 3.16-.002v-8.47zM51.208 29.63c0-1.673-.112-3.322-.32-4.938-.263.266-.53.528-.808.78a20.332 20.332 0 0 1-2.12 1.685c.057.815.09 1.638.09 2.472 0 1.798-.138 3.554-.394 5.25a27.988 27.988 0 0 0 3.428-2.177c.08-1.015.124-2.04.124-3.074M27.52 42.136v5.15a43.884 43.884 0 0 0 3.16 0v-5.15a48.484 48.484 0 0 1-3.16 0M34.77 17.734a4.303 4.303 0 0 0 4.297-4.3c0-2.373-1.927-4.302-4.296-4.302a4.303 4.303 0 0 0-4.294 4.3c0 2.372 1.927 4.302 4.295 4.302m0-5.967a1.666 1.666 0 0 1 0 3.33 1.666 1.666 0 0 1 0-3.33" fill="#BDD630"/></g></svg>