<?xml version="1.0" encoding="UTF-8"?>
<svg width="59px" height="59px" viewBox="0 0 59 59" version="1.1" xmlns="http://www.w3.org/2000/svg" xmlns:xlink="http://www.w3.org/1999/xlink">
    <!-- Generator: Sketch 50.2 (55047) - http://www.bohemiancoding.com/sketch -->
    <title>Group 2 Copy</title>
    <desc>Created with Sketch.</desc>
    <defs>
        <polygon id="path-1" points="55.86 0.017 0 0.017 0 58.228 55.86 58.228 55.86 0.018"></polygon>
    </defs>
    <g id="Page-1" stroke="none" stroke-width="1" fill="none" fill-rule="evenodd">
        <g id="Group-2-Copy">
            <g id="gaa-logo-copy">
                <g id="Group" transform="translate(0.000000, 0.510000)">
                    <g id="Clipped">
                        <mask id="mask-2" fill="white">
                            <use xlink:href="#path-1"></use>
                        </mask>
                        <g id="c"></g>
                        <path d="M44.595,49.902 C44.691,49.778 44.787,49.654 44.881,49.528 C45.7250835,48.3903826 46.4847792,47.1925166 47.154,45.944 C45.5586583,46.6607527 43.9193501,47.2753262 42.246,47.784 C40.683,49.847 38.864,51.55 36.858,52.787 C37.5609885,51.6386105 38.1715782,50.4361567 38.684,49.191 C38.756,49.018 38.826,48.836 38.896,48.658 C37.67,48.928 36.416,49.145 35.143,49.313 C33.806,52.049 32.25,53.911 30.68,54.673 L30.68,49.68 C29.6269524,49.7146961 28.5730476,49.7146961 27.52,49.68 L27.52,54.683 C25.932,53.93 24.374,52.073 23.035,49.313 C21.835,49.155 20.655,48.953 19.5,48.705 C20.2046072,50.3132483 21.0205894,51.8703641 21.942,53.365 C19.294,52.048 17.044,50.045 15.508,47.653 C14.7780672,46.521981 14.2149456,45.291668 13.836,44 C13.5016464,42.8575166 13.330948,41.6734019 13.329,40.483 C13.3310389,38.963264 13.5685222,37.4530183 14.033,36.006 C15.926,30.15 21.422,25.9 27.894,25.9 L36.184,25.9 L36.184,25.89 C44.241,25.687 50.854,19.585 51.644,11.53 L51.714,10.86 L51.28,10.347 C45.7642249,3.79319241 37.6339877,0.0121123371 29.068,0.017 C14.853,0.017 2.988,10.287 0.488,23.807 C0.165268655,25.5488571 0.00192668359,27.3164984 0,29.088 L0,29.124 C0,30.944 0.17,32.726 0.49,34.454 C0.878,36.544 1.49,38.557 2.298,40.464 C6.721,50.894 17.05,58.224 29.058,58.229 L29.068,58.229 C41.073,58.225 51.423,50.897 55.86,40.474 C54.0184741,42.0450341 52.0191337,43.4210468 49.894,44.58 C48.3926643,46.5998212 46.6075849,48.3923105 44.594,49.902 M8.277,44.582 C7.01465878,42.8862071 5.96421138,41.042551 5.149,39.092 C4.32469717,37.1177433 3.74960046,35.0484701 3.437,32.932 C3.2506004,31.6705583 3.15701579,30.3971392 3.157,29.122 C3.157,28.91 3.169,28.702 3.173,28.489 C3.513,14.476 14.993,3.179 29.067,3.179 C36.484,3.179 43.497,6.339 48.42,11.871 C47.49,18.111 42.16,22.737 35.77,22.737 C28.72,22.737 22.986,16.997 22.986,9.937 L19.828,9.937 C19.828,15.217 22.4,19.901 26.354,22.807 C19.279,23.421 13.378,28.212 11.137,34.697 C10.817,35.621 10.577,36.579 10.415,37.564 C10.257,38.514 10.17,39.488 10.17,40.482 C10.1733668,42.3687216 10.509517,44.2400594 11.163,46.01 C11.583,47.147 12.128,48.247 12.797,49.294 C11.0992791,47.9177064 9.58077478,46.3340273 8.277,44.58" id="Shape" fill="#106F8D" fill-rule="nonzero" mask="url(#mask-2)"></path>
                    </g>
                </g>
                <path d="M57.68,24.32 C57.2391609,21.9390876 56.501052,19.6229645 55.483,17.426 C54.9970047,18.7613846 54.3715464,20.0417977 53.617,21.246 C54.4703482,23.743631 54.9357541,26.3573237 54.997,28.996 C56.18,27.538 57.089,25.97 57.679,24.321 L57.68,24.32 Z M58.168,29.596 C57.1718427,31.0050613 56.0176632,32.2954609 54.728,33.442 C54.412,35.592 53.828,37.656 53.018,39.602 C54.7512054,38.24933 56.3151398,36.6927822 57.676,34.966 C57.998,33.236 58.168,31.454 58.168,29.632 L58.168,29.596 Z M17.925,37.805 C18.535,37.971 19.151,38.125 19.779,38.263 C19.639,37.273 19.522,36.263 19.431,35.233 C18.801,36.027 18.291,36.893 17.924,37.805 L17.925,37.805 Z M44.68,44.372 C46.1734372,43.7713549 47.6250125,43.0714584 49.025,42.277 C49.707815,40.4052955 50.2306881,38.4790618 50.588,36.519 C49.4038311,37.2464798 48.1758224,37.9000596 46.911,38.476 C46.374988,40.5132976 45.627598,42.4890216 44.681,44.371 L44.68,44.372 Z M36.432,46.696 C37.652,46.488 38.845,46.226 40.01,45.92 C40.51,44.227 40.928,42.425 41.258,40.535 C40.1465057,40.8438767 39.0229108,41.1074278 37.89,41.325 C37.5249972,43.1456762 37.0378969,44.9397286 36.432,46.695 L36.432,46.696 Z M42.168,29.928 C41.1323158,30.2330661 40.073965,30.4551024 39.003,30.592 C38.9698364,33.156448 38.7744461,35.7162284 38.418,38.256 C39.5303664,38.0099968 40.6314219,37.715381 41.718,37.373 C42.001,34.975 42.156,32.478 42.168,29.928 Z M30.68,30.76 L28.54,30.76 C28.2,30.76 27.858,30.778 27.52,30.81 L27.52,39.233 C28.5730336,39.2692302 29.6270131,39.2685631 30.68,39.231 L30.68,30.761 L30.68,30.76 Z M51.208,29.63 C51.208,27.957 51.096,26.308 50.888,24.692 C50.625,24.958 50.358,25.22 50.08,25.472 C49.411565,26.0801561 48.7033278,26.6430711 47.96,27.157 C48.017,27.972 48.05,28.795 48.05,29.629 C48.05,31.427 47.912,33.183 47.656,34.879 C48.8498731,34.2372962 49.9955546,33.5097149 51.084,32.702 C51.164,31.687 51.208,30.662 51.208,29.628 L51.208,29.63 Z M27.52,42.136 L27.52,47.286 C28.5729918,47.3239365 29.6270082,47.3239365 30.68,47.286 L30.68,42.136 C29.6269465,42.1703352 28.5730535,42.1703352 27.52,42.136 Z M34.77,17.734 C37.1429671,17.7306918 39.0653479,15.8069688 39.067,13.434 C39.067,11.061 37.14,9.132 34.771,9.132 C32.3992048,9.1369602 30.4786484,11.0602002 30.477,13.432 C30.477,15.804 32.404,17.734 34.772,17.734 L34.77,17.734 Z M34.772,11.767 C35.6691041,11.7980968 36.3802852,12.5343571 36.3802852,13.432 C36.3802852,14.3296429 35.6691041,15.0659032 34.772,15.097 C33.8748959,15.0659032 33.1637148,14.3296429 33.1637148,13.432 C33.1637148,12.5343571 33.8748959,11.7980968 34.772,11.767 Z" id="Shape" fill="#106F8D" fill-rule="nonzero"></path>
            </g>
        </g>
    </g>
</svg>